<?xml version="1.0" encoding="UTF-8" standalone="no"?>
<!DOCTYPE svg PUBLIC "-//W3C//DTD SVG 20010904//EN"
              "http://www.w3.org/TR/2001/REC-SVG-20010904/DTD/svg10.dtd">

<svg xmlns="http://www.w3.org/2000/svg"
     width="0.816667in" height="0.816667in"
     viewBox="0 0 245 245">
  <path id="harricane"
        fill="white" stroke-width="0"
        d="M 54.00,89.00
           C 56.15,62.74 74.66,35.21 95.00,19.42
             100.65,15.04 114.71,5.61 122.00,8.00
             108.73,14.51 95.80,28.53 88.06,41.00
             84.94,46.04 80.99,51.94 81.00,58.00
             85.20,50.17 92.77,44.31 100.00,39.35
             116.56,27.98 138.67,19.23 159.00,19.00
             165.53,18.93 173.53,19.11 179.00,23.00
             155.41,23.00 134.36,31.35 116.00,46.00
             143.01,37.00 169.23,35.92 196.00,47.01
             204.36,50.48 215.96,55.53 220.00,64.00
             220.00,64.00 203.00,56.69 203.00,56.69
             189.42,51.96 168.96,49.02 155.00,53.00
             182.84,58.24 205.69,71.53 223.33,94.00
             227.86,99.76 237.09,113.50 235.00,121.00
             226.66,107.46 214.62,94.91 201.00,86.61
             196.23,83.71 190.69,80.01 185.00,80.00
             191.99,83.31 197.81,90.86 202.37,97.00
             214.66,113.54 223.91,138.24 224.00,159.00
             224.03,165.46 223.87,172.56 220.00,178.00
             219.94,156.91 211.62,133.11 198.00,117.00
             200.96,130.10 203.98,137.87 204.00,152.00
             204.02,166.70 201.75,179.11 197.00,193.00
             193.74,202.53 188.11,215.00 179.00,220.00
             179.00,220.00 187.25,200.00 187.25,200.00
             191.27,187.50 193.61,167.69 190.00,155.00
             184.77,182.80 171.43,205.77 149.00,223.33
             143.29,227.80 129.42,237.44 122.00,235.00
             135.91,227.18 150.73,212.10 158.22,198.00
             160.58,193.55 163.26,189.02 164.00,184.00
             160.23,191.03 153.29,196.95 147.00,201.76
             130.99,214.01 106.34,223.90 86.00,224.00
             78.78,224.03 71.04,224.60 65.00,220.00
             88.66,220.00 108.47,212.79 127.00,198.00
             115.80,200.56 108.16,203.94 96.00,204.00
             77.80,204.08 67.44,203.44 50.00,197.05
             40.75,193.66 28.41,188.30 24.00,179.00
             24.00,179.00 41.00,186.56 41.00,186.56
             54.30,191.40 75.35,194.17 89.00,190.00
             63.71,187.88 35.54,168.70 20.50,149.00
             16.14,143.29 6.60,129.30 9.00,122.00
             16.54,135.41 28.95,147.84 42.00,155.94
             46.65,158.82 53.53,162.99 59.00,163.00
             51.17,158.80 45.31,151.23 40.35,144.00
             29.10,127.62 20.24,105.09 20.00,85.00
             19.93,78.36 19.46,70.33 24.00,65.00
             24.00,86.92 31.65,109.29 46.00,126.00
             37.61,100.35 37.74,74.41 47.05,49.00
             50.34,40.04 56.07,27.26 65.00,23.00
             65.00,23.00 59.06,36.00 59.06,36.00
             53.20,51.32 49.31,72.99 54.00,89.00 Z
           M 80.00,58.00
           C 80.00,58.00 79.00,58.00 79.00,58.00
             79.00,58.00 80.00,59.00 80.00,59.00
             80.00,59.00 80.00,58.00 80.00,58.00 Z
           M 98.00,62.00
           C 98.00,62.00 97.00,62.00 97.00,62.00
             97.00,62.00 98.00,63.00 98.00,63.00
             98.00,63.00 98.00,62.00 98.00,62.00 Z
           M 97.00,63.00
           C 77.38,69.26 69.76,95.71 74.92,114.00
             77.11,121.75 81.18,126.35 85.00,133.00
             74.55,132.97 66.87,130.66 61.23,121.00
             61.23,121.00 58.00,113.00 58.00,113.00
             58.00,119.22 57.82,122.82 59.49,129.00
             64.44,147.36 80.39,159.19 99.00,160.83
             103.69,161.24 107.49,159.91 112.00,159.00
             108.25,167.39 103.55,173.11 94.00,174.84
             90.24,175.29 86.60,173.98 83.00,174.84
             101.58,183.87 121.50,184.42 136.99,168.98
             142.76,163.23 146.13,157.96 148.00,150.00
             148.00,150.00 150.00,150.00 150.00,150.00
             151.55,154.30 153.94,158.37 154.45,163.00
             155.30,170.67 150.77,175.96 147.00,182.00
             165.97,174.74 174.23,150.58 169.24,132.00
             166.80,122.89 163.36,119.58 159.00,112.00
             169.50,112.03 177.05,114.18 182.64,124.00
             182.64,124.00 186.00,133.00 186.00,133.00
             186.00,123.51 186.11,117.92 181.88,109.00
             173.20,90.66 151.65,79.99 132.00,86.00
             134.69,77.56 141.91,70.73 151.00,70.05
             154.49,69.85 157.62,70.96 161.00,70.05
             152.55,65.96 146.55,63.57 137.00,63.57
             118.47,63.57 99.55,76.08 96.00,95.00
             89.06,88.50 87.36,79.54 91.68,71.00
             91.68,71.00 97.00,63.00 97.00,63.00 Z
           M 162.00,71.00
           C 162.00,71.00 161.00,71.00 161.00,71.00
             161.00,71.00 162.00,72.00 162.00,72.00
             162.00,72.00 162.00,71.00 162.00,71.00 Z
           M 185.00,78.00
           C 185.00,78.00 184.00,78.00 184.00,78.00
             184.00,78.00 185.00,79.00 185.00,79.00
             185.00,79.00 185.00,78.00 185.00,78.00 Z
           M 198.00,116.00
           C 198.00,116.00 197.00,116.00 197.00,116.00
             197.00,116.00 198.00,117.00 198.00,117.00
             198.00,117.00 198.00,116.00 198.00,116.00 Z
           M 60.00,164.00
           C 60.00,164.00 59.00,164.00 59.00,164.00
             59.00,164.00 60.00,165.00 60.00,165.00
             60.00,165.00 60.00,164.00 60.00,164.00 Z
           M 83.00,173.00
           C 83.00,173.00 82.00,173.00 82.00,173.00
             82.00,173.00 83.00,174.00 83.00,174.00
             83.00,174.00 83.00,173.00 83.00,173.00 Z
           M 128.00,197.00
           C 128.00,197.00 127.00,197.00 127.00,197.00
             127.00,197.00 128.00,198.00 128.00,198.00
             128.00,198.00 128.00,197.00 128.00,197.00 Z" />
</svg>
